<svg width="19" height="19" viewBox="0 0 19 19" fill="none" xmlns="http://www.w3.org/2000/svg">
<g id="bxl-google">
<path id="Path" d="M17.9975 8.1027H9.67051V11.5537H14.4625C14.0165 13.7467 12.1495 15.0067 9.67051 15.0067C6.74751 15.0067 4.39151 12.6507 4.39151 9.7267C4.39151 6.8037 6.74751 4.4477 9.67051 4.4477C10.9295 4.4477 12.0675 4.8947 12.9605 5.6257L15.5605 3.0267C13.9765 1.6457 11.9455 0.793701 9.67051 0.793701C4.71651 0.793701 0.736511 4.7727 0.736511 9.7277C0.736511 14.6827 4.71551 18.6617 9.67051 18.6617C14.1375 18.6617 18.1995 15.4127 18.1995 9.7277C18.1995 9.1997 18.1185 8.6307 17.9975 8.1027Z" fill="#DB4437"/>
</g>
</svg>
