<svg width="20" height="17" viewBox="0 0 20 17" fill="none" xmlns="http://www.w3.org/2000/svg">
<g id="bxl-twitter">
<path id="Path" d="M17.7695 4.72483C17.7825 4.89983 17.7825 5.07383 17.7825 5.24783C17.7825 10.5728 13.7295 16.7088 6.32247 16.7088C4.04047 16.7088 1.92047 16.0478 0.136475 14.8998C0.460475 14.9368 0.772475 14.9498 1.10947 14.9498C2.99247 14.9498 4.72547 14.3138 6.11047 13.2288C4.33947 13.1918 2.85547 12.0318 2.34347 10.4358C2.59247 10.4728 2.84247 10.4978 3.10447 10.4978C3.46547 10.4978 3.82847 10.4478 4.16547 10.3608C2.31847 9.98683 0.935475 8.36583 0.935475 6.40783V6.35783C1.47247 6.65683 2.09547 6.84383 2.75547 6.86883C1.67047 6.14683 0.959475 4.91183 0.959475 3.51483C0.959475 2.76683 1.15847 2.08083 1.50747 1.48283C3.49047 3.92583 6.47147 5.52283 9.81347 5.69783C9.75147 5.39783 9.71347 5.08683 9.71347 4.77483C9.71347 2.55483 11.5095 0.746826 13.7415 0.746826C14.9015 0.746826 15.9485 1.23283 16.6845 2.01883C17.5945 1.84383 18.4665 1.50683 19.2405 1.04583C18.9415 1.98083 18.3045 2.76683 17.4695 3.26583C18.2805 3.17783 19.0665 2.95383 19.7885 2.64183C19.2405 3.43983 18.5555 4.15083 17.7695 4.72483Z" fill="#1DA1F2"/>
</g>
</svg>
