<svg width="21" height="20" viewBox="0 0 21 20" fill="none" xmlns="http://www.w3.org/2000/svg">
<g id="bxl-github">
<path id="Path" d="M10.7625 0C5.25351 0 0.788513 4.465 0.788513 9.974C0.788513 14.38 3.64551 18.119 7.60951 19.439C8.10851 19.529 8.28851 19.222 8.28851 18.958C8.28851 18.721 8.28051 18.093 8.27751 17.262C5.50251 17.864 4.91651 15.924 4.91651 15.924C4.46451 14.772 3.80951 14.465 3.80951 14.465C2.90451 13.846 3.87851 13.86 3.87851 13.86C4.88051 13.93 5.40551 14.888 5.40551 14.888C6.29551 16.412 7.74151 15.972 8.30751 15.717C8.39851 15.072 8.65851 14.632 8.94251 14.383C6.72851 14.132 4.40051 13.276 4.40051 9.453C4.40051 8.366 4.78951 7.474 5.42451 6.778C5.32351 6.525 4.97851 5.51 5.52351 4.138C5.52351 4.138 6.36051 3.869 8.26551 5.159C9.06351 4.938 9.91451 4.827 10.7615 4.823C11.6105 4.827 12.4625 4.938 13.2575 5.159C15.1635 3.868 15.9995 4.138 15.9995 4.138C16.5445 5.51 16.2025 6.525 16.0985 6.778C16.7385 7.474 17.1225 8.365 17.1225 9.453C17.1225 13.286 14.7925 14.128 12.5705 14.375C12.9255 14.683 13.2455 15.291 13.2455 16.221C13.2455 17.555 13.2335 18.631 13.2335 18.958C13.2335 19.225 13.4115 19.535 13.9205 19.437C17.8825 18.115 20.7365 14.379 20.7365 9.974C20.7365 4.465 16.2715 0 10.7625 0Z" fill="#272727"/>
</g>
</svg>
