<svg width="41" height="40" viewBox="0 0 41 40" fill="none" xmlns="http://www.w3.org/2000/svg">
<g id="abstract-svgrepo-com 1">
<path id="Vector" d="M8.83337 31.6667L8.83337 8.33343L32.1667 8.33343L32.1667 13.3334L13.8334 13.3334L13.8334 31.6667L8.83337 31.6667Z" fill="#32475C" fill-opacity="0.87"/>
<path id="Vector_2" fill-rule="evenodd" clip-rule="evenodd" d="M32.1667 23.3334C32.1667 18.7311 28.4357 15.0001 23.8333 15.0001C19.231 15.0001 15.5 18.7311 15.5 23.3334C15.5 27.9358 19.231 31.6667 23.8333 31.6667C28.4357 31.6667 32.1667 27.9358 32.1667 23.3334ZM27.1667 23.3334C27.1667 21.4924 25.6743 20.0001 23.8333 20.0001C21.9923 20.0001 20.5 21.4924 20.5 23.3334C20.5 25.1744 21.9923 26.6667 23.8333 26.6667C25.6743 26.6667 27.1667 25.1744 27.1667 23.3334Z" fill="#32475C" fill-opacity="0.87"/>
</g>
</svg>
